STARTFONT 2.1
FONT -Adobe-ITC Lubalin Graph-Book-O-Normal--19-120-100-100-P-89-ISO8859-1
SIZE 12 100 100
FONTBOUNDINGBOX 22 20 -3 -4

STARTPROPERTIES 30
FOUNDRY "Adobe"
FAMILY_NAME "ITC Lubalin Graph"
WEIGHT_NAME "Book"
SLANT "O"
SETWIDTH_NAME "Normal"
ADD_STYLE_NAME ""
PIXEL_SIZE 19
POINT_SIZE 120
RESOLUTION_X 100
RESOLUTION_Y 100
SPACING "P"
AVERAGE_WIDTH 89
CHARSET_REGISTRY "ISO8859"
CHARSET_ENCODING "1"
CAP_HEIGHT 12
X_HEIGHT 9
FACE_NAME "ITC Lubalin Graph Book Oblique"
COPYRIGHT "Copyright (c) 1984, 1987 Adobe Systems Incorporated. All Rights Reserved. Copyright (c) 1988, 1991 Digital Equipment Corporation. All Rights Reserved."
NOTICE "ITC Lubalin Graph is a registered trademark of International Typeface Corporation."
_DEC_DEVICE_FONTNAMES "PS=LubalinGraph-BookOblique"
_DEC_PRODUCTINFO "DECwindows Fonts V2.2, 07-Nov-1991"
RELATIVE_SETWIDTH 50
RELATIVE_WEIGHT 40
CHARSET_COLLECTIONS "ASCII ISO8859-1 ADOBE-STANDARD"
FULL_NAME "ITC Lubalin Graph Book Oblique"
WEIGHT 10
QUAD_WIDTH 9
DEFAULT_CHAR 32
FONT_DESCENT 4
FONT_ASCENT 14
ENDPROPERTIES

CHARS 191

STARTCHAR space
ENCODING 32
SWIDTH 300 0
DWIDTH 4 0
BBX 1 1 0 0
BITMAP
00
ENDCHAR

STARTCHAR exclam
ENCODING 33
SWIDTH 140 0
DWIDTH 2 0
BBX 3 12 0 0
BITMAP
20
20
20
60
40
40
40
80
80
00
80
80
ENDCHAR

STARTCHAR quotedbl
ENCODING 34
SWIDTH 280 0
DWIDTH 4 0
BBX 3 4 2 8
BITMAP
A0
A0
A0
A0
ENDCHAR

STARTCHAR numbersign
ENCODING 35
SWIDTH 580 0
DWIDTH 9 0
BBX 8 12 1 0
BITMAP
09
09
12
12
7F
24
24
FE
48
48
90
90
ENDCHAR

STARTCHAR dollar
ENCODING 36
SWIDTH 580 0
DWIDTH 9 0
BBX 9 16 1 -2
BITMAP
0400
0400
0E80
1580
2480
2800
2800
1800
0E00
0B00
0900
9100
D200
BC00
1000
1000
ENDCHAR

STARTCHAR percent
ENCODING 37
SWIDTH 800 0
DWIDTH 13 0
BBX 10 12 2 0
BITMAP
3080
4900
8900
9200
6400
0400
0800
0980
1240
2440
2480
4300
ENDCHAR

STARTCHAR ampersand
ENCODING 38
SWIDTH 720 0
DWIDTH 12 0
BBX 11 12 1 0
BITMAP
0E00
1100
1100
1200
0C00
1860
2440
4280
8180
8100
C680
7840
ENDCHAR

STARTCHAR quoteright
ENCODING 39
SWIDTH 200 0
DWIDTH 3 0
BBX 2 4 2 8
BITMAP
40
40
80
80
ENDCHAR

STARTCHAR parenleft
ENCODING 40
SWIDTH 340 0
DWIDTH 5 0
BBX 6 14 1 -2
BITMAP
04
08
10
20
20
40
40
80
80
80
80
80
40
20
ENDCHAR

STARTCHAR parenright
ENCODING 41
SWIDTH 340 0
DWIDTH 5 0
BBX 6 14 -1 -2
BITMAP
10
08
04
04
04
04
04
08
08
10
10
20
40
80
ENDCHAR

STARTCHAR asterisk
ENCODING 42
SWIDTH 340 0
DWIDTH 5 0
BBX 5 5 1 7
BITMAP
28
30
F8
60
A0
ENDCHAR

STARTCHAR plus
ENCODING 43
SWIDTH 660 0
DWIDTH 11 0
BBX 9 9 2 1
BITMAP
0400
0400
0400
0800
FF80
0800
1000
1000
1000
ENDCHAR

STARTCHAR comma
ENCODING 44
SWIDTH 300 0
DWIDTH 4 0
BBX 2 4 0 -2
BITMAP
40
40
80
80
ENDCHAR

STARTCHAR minus
ENCODING 45
SWIDTH 660 0
DWIDTH 11 0
BBX 8 1 2 5
BITMAP
FF
ENDCHAR

STARTCHAR period
ENCODING 46
SWIDTH 300 0
DWIDTH 4 0
BBX 1 2 1 0
BITMAP
80
80
ENDCHAR

STARTCHAR slash
ENCODING 47
SWIDTH 580 0
DWIDTH 9 0
BBX 11 15 -1 -3
BITMAP
0020
0040
0080
0080
0100
0200
0200
0400
0800
0800
1000
2000
2000
4000
8000
ENDCHAR

STARTCHAR zero
ENCODING 48
SWIDTH 580 0
DWIDTH 9 0
BBX 7 12 2 0
BITMAP
1C
22
42
42
42
82
82
84
84
84
88
70
ENDCHAR

STARTCHAR one
ENCODING 49
SWIDTH 580 0
DWIDTH 9 0
BBX 5 12 2 0
BITMAP
38
08
08
08
10
10
10
10
20
20
20
F8
ENDCHAR

STARTCHAR two
ENCODING 50
SWIDTH 580 0
DWIDTH 9 0
BBX 9 12 1 0
BITMAP
0E00
1100
2080
2080
0080
0300
0400
1800
2000
4200
8200
FE00
ENDCHAR

STARTCHAR three
ENCODING 51
SWIDTH 580 0
DWIDTH 9 0
BBX 9 12 1 0
BITMAP
0E00
1100
2080
0080
0300
1C00
0200
0100
0100
8100
4600
3800
ENDCHAR

STARTCHAR four
ENCODING 52
SWIDTH 580 0
DWIDTH 9 0
BBX 8 12 1 0
BITMAP
03
05
05
09
12
22
22
42
FF
04
04
0E
ENDCHAR

STARTCHAR five
ENCODING 53
SWIDTH 580 0
DWIDTH 9 0
BBX 9 12 1 0
BITMAP
1F80
1000
2000
2000
5C00
6200
0100
0100
8100
8200
4600
3800
ENDCHAR

STARTCHAR six
ENCODING 54
SWIDTH 580 0
DWIDTH 9 0
BBX 8 12 1 0
BITMAP
02
04
08
10
3C
62
41
81
81
82
46
38
ENDCHAR

STARTCHAR seven
ENCODING 55
SWIDTH 580 0
DWIDTH 9 0
BBX 7 12 3 0
BITMAP
FE
82
84
04
08
10
10
20
20
40
80
80
ENDCHAR

STARTCHAR eight
ENCODING 56
SWIDTH 580 0
DWIDTH 9 0
BBX 9 12 1 0
BITMAP
0F00
1080
2080
2080
2100
1E00
6200
4100
8100
8100
4200
3C00
ENDCHAR

STARTCHAR nine
ENCODING 57
SWIDTH 580 0
DWIDTH 9 0
BBX 8 12 2 0
BITMAP
1C
62
41
81
81
82
46
3C
08
10
20
40
ENDCHAR

STARTCHAR colon
ENCODING 58
SWIDTH 300 0
DWIDTH 4 0
BBX 2 8 1 0
BITMAP
40
40
00
00
00
00
80
80
ENDCHAR

STARTCHAR semicolon
ENCODING 59
SWIDTH 300 0
DWIDTH 4 0
BBX 3 10 0 -2
BITMAP
20
20
00
00
00
00
40
40
80
80
ENDCHAR

STARTCHAR less
ENCODING 60
SWIDTH 660 0
DWIDTH 11 0
BBX 9 9 2 1
BITMAP
0180
0600
1800
6000
8000
6000
1000
0C00
0200
ENDCHAR

STARTCHAR equal
ENCODING 61
SWIDTH 660 0
DWIDTH 11 0
BBX 8 3 2 4
BITMAP
FF
00
FF
ENDCHAR

STARTCHAR greater
ENCODING 62
SWIDTH 660 0
DWIDTH 11 0
BBX 9 9 1 1
BITMAP
2000
1800
0400
0300
0080
0300
0C00
3000
C000
ENDCHAR

STARTCHAR question
ENCODING 63
SWIDTH 520 0
DWIDTH 8 0
BBX 7 12 2 0
BITMAP
38
44
82
82
02
04
18
20
20
00
40
40
ENDCHAR

STARTCHAR at
ENCODING 64
SWIDTH 900 0
DWIDTH 14 0
BBX 13 12 1 0
BITMAP
07C0
1830
2010
4748
4888
9090
9110
9120
8EC0
4000
60C0
1F00
ENDCHAR

STARTCHAR A
ENCODING 65
SWIDTH 820 0
DWIDTH 13 0
BBX 12 12 0 0
BITMAP
0380
0180
0280
0280
0440
0840
0840
1FC0
2040
2020
4020
E070
ENDCHAR

STARTCHAR B
ENCODING 66
SWIDTH 580 0
DWIDTH 9 0
BBX 10 12 0 0
BITMAP
3F80
1040
1040
1040
2080
3F00
2080
2080
4080
4100
4300
FC00
ENDCHAR

STARTCHAR C
ENCODING 67
SWIDTH 740 0
DWIDTH 12 0
BBX 12 12 1 0
BITMAP
07D0
1830
2010
4000
4000
8000
8000
8000
8000
8040
4080
3F00
ENDCHAR

STARTCHAR D
ENCODING 68
SWIDTH 720 0
DWIDTH 11 0
BBX 11 12 0 0
BITMAP
3F00
10C0
1040
1020
2020
2020
2020
2040
4040
4080
4300
FC00
ENDCHAR

STARTCHAR E
ENCODING 69
SWIDTH 560 0
DWIDTH 9 0
BBX 10 12 0 0
BITMAP
3FC0
1040
1040
1000
2000
3E00
2000
2000
4000
4100
4100
FF00
ENDCHAR

STARTCHAR F
ENCODING 70
SWIDTH 560 0
DWIDTH 9 0
BBX 10 12 0 0
BITMAP
3FC0
1040
1040
1000
2000
3E00
2000
2000
4000
4000
4000
E000
ENDCHAR

STARTCHAR G
ENCODING 71
SWIDTH 780 0
DWIDTH 12 0
BBX 12 12 1 0
BITMAP
07D0
1830
2010
4000
4000
8000
8FE0
8020
8060
80C0
4140
3E40
ENDCHAR

STARTCHAR H
ENCODING 72
SWIDTH 720 0
DWIDTH 11 0
BBX 12 12 0 0
BITMAP
3870
1020
1020
1020
2040
3FC0
2040
2040
4080
4080
4080
E1C0
ENDCHAR

STARTCHAR I
ENCODING 73
SWIDTH 300 0
DWIDTH 6 0
BBX 5 12 1 0
BITMAP
38
10
10
10
20
20
20
20
40
40
40
E0
ENDCHAR

STARTCHAR J
ENCODING 74
SWIDTH 520 0
DWIDTH 8 0
BBX 9 12 0 0
BITMAP
0380
0100
0100
0100
0200
0200
0200
0200
0400
8400
8400
7800
ENDCHAR

STARTCHAR K
ENCODING 75
SWIDTH 700 0
DWIDTH 11 0
BBX 12 12 0 0
BITMAP
38F0
1040
1080
1300
2400
3800
2800
2400
4200
4100
4080
E1C0
ENDCHAR

STARTCHAR L
ENCODING 76
SWIDTH 520 0
DWIDTH 8 0
BBX 7 12 0 0
BITMAP
38
10
10
10
20
20
20
20
40
42
42
FE
ENDCHAR

STARTCHAR M
ENCODING 77
SWIDTH 980 0
DWIDTH 16 0
BBX 17 12 0 0
BITMAP
380380
180300
180500
140900
240A00
241200
222200
222200
424400
428400
418400
E10E00
ENDCHAR

STARTCHAR N
ENCODING 78
SWIDTH 800 0
DWIDTH 12 0
BBX 13 12 0 0
BITMAP
3838
1810
1410
1410
2220
2220
2320
2120
4140
40C0
40C0
E040
ENDCHAR

STARTCHAR O
ENCODING 79
SWIDTH 800 0
DWIDTH 13 0
BBX 12 12 1 0
BITMAP
07C0
1820
2010
4010
4010
8010
8010
8020
8020
8040
4180
3E00
ENDCHAR

STARTCHAR P
ENCODING 80
SWIDTH 580 0
DWIDTH 9 0
BBX 10 12 0 0
BITMAP
3F80
1040
1040
1040
2080
2180
3E00
2000
4000
4000
4000
E000
ENDCHAR

STARTCHAR Q
ENCODING 81
SWIDTH 860 0
DWIDTH 13 0
BBX 12 12 1 0
BITMAP
07C0
1820
2010
4010
4010
8010
8010
F820
8620
8140
4190
3E70
ENDCHAR

STARTCHAR R
ENCODING 82
SWIDTH 640 0
DWIDTH 10 0
BBX 10 12 0 0
BITMAP
3F80
1040
1040
1040
2080
2180
2E00
2800
4400
4200
4300
E180
ENDCHAR

STARTCHAR S
ENCODING 83
SWIDTH 500 0
DWIDTH 8 0
BBX 9 12 0 0
BITMAP
0E80
1180
2080
2000
2000
1800
0C00
0200
0200
8200
C400
B800
ENDCHAR

STARTCHAR T
ENCODING 84
SWIDTH 540 0
DWIDTH 8 0
BBX 7 12 2 0
BITMAP
FE
92
92
10
20
20
20
20
40
40
40
E0
ENDCHAR

STARTCHAR U
ENCODING 85
SWIDTH 700 0
DWIDTH 10 0
BBX 10 12 1 0
BITMAP
71C0
2080
2080
2080
4100
4100
4100
8200
8200
8200
C400
7800
ENDCHAR

STARTCHAR V
ENCODING 86
SWIDTH 780 0
DWIDTH 12 0
BBX 13 12 1 0
BITMAP
F078
2020
2020
2040
1080
1080
1100
1200
1200
0C00
0800
0800
ENDCHAR

STARTCHAR W
ENCODING 87
SWIDTH 1040 0
DWIDTH 16 0
BBX 17 12 1 0
BITMAP
F08780
208200
218200
218400
228400
128800
124800
145000
145000
186000
104000
104000
ENDCHAR

STARTCHAR X
ENCODING 88
SWIDTH 740 0
DWIDTH 11 0
BBX 12 12 0 0
BITMAP
3870
1020
0840
0880
0500
0600
0600
0A00
1100
2100
4080
E1C0
ENDCHAR

STARTCHAR Y
ENCODING 89
SWIDTH 680 0
DWIDTH 12 0
BBX 12 12 2 0
BITMAP
F0F0
4040
2080
2100
1200
1400
0C00
0800
0800
1000
1000
3800
ENDCHAR

STARTCHAR Z
ENCODING 90
SWIDTH 520 0
DWIDTH 8 0
BBX 9 12 0 0
BITMAP
3F80
2100
2200
0400
0400
0800
1000
2000
2000
4200
8200
FE00
ENDCHAR

STARTCHAR bracketleft
ENCODING 91
SWIDTH 300 0
DWIDTH 5 0
BBX 6 14 0 -2
BITMAP
1C
10
10
10
20
20
20
40
40
40
40
80
80
E0
ENDCHAR

STARTCHAR backslash
ENCODING 92
SWIDTH 580 0
DWIDTH 9 0
BBX 4 12 3 0
BITMAP
80
80
80
40
40
40
20
20
20
10
10
10
ENDCHAR

STARTCHAR bracketright
ENCODING 93
SWIDTH 300 0
DWIDTH 5 0
BBX 6 14 0 -2
BITMAP
1C
04
04
08
08
08
08
10
10
10
20
20
20
E0
ENDCHAR

STARTCHAR asciicircum
ENCODING 94
SWIDTH 660 0
DWIDTH 11 0
BBX 8 9 2 3
BITMAP
04
0C
0C
12
12
22
41
41
81
ENDCHAR

STARTCHAR underscore
ENCODING 95
SWIDTH 500 0
DWIDTH 8 0
BBX 8 1 -1 -2
BITMAP
FF
ENDCHAR

STARTCHAR quoteleft
ENCODING 96
SWIDTH 200 0
DWIDTH 3 0
BBX 2 4 2 8
BITMAP
80
80
40
40
ENDCHAR

STARTCHAR a
ENCODING 97
SWIDTH 660 0
DWIDTH 10 0
BBX 11 9 0 0
BITMAP
1F60
2180
4080
4080
8080
8100
8100
4300
3D80
ENDCHAR

STARTCHAR b
ENCODING 98
SWIDTH 660 0
DWIDTH 10 0
BBX 10 12 0 0
BITMAP
3000
1000
1000
1700
2880
3040
2040
2040
4080
4080
6100
DE00
ENDCHAR

STARTCHAR c
ENCODING 99
SWIDTH 560 0
DWIDTH 9 0
BBX 10 9 0 0
BITMAP
1F40
2180
4080
4000
8000
8000
8100
4200
3C00
ENDCHAR

STARTCHAR d
ENCODING 100
SWIDTH 660 0
DWIDTH 10 0
BBX 10 12 0 0
BITMAP
00C0
0040
0040
1F40
2180
4080
4080
8080
8100
8100
4300
3D80
ENDCHAR

STARTCHAR e
ENCODING 101
SWIDTH 580 0
DWIDTH 9 0
BBX 9 9 0 0
BITMAP
1E00
2100
4080
4080
FF80
8000
8100
4200
3C00
ENDCHAR

STARTCHAR f
ENCODING 102
SWIDTH 300 0
DWIDTH 4 0
BBX 6 12 0 0
BITMAP
0C
10
10
78
20
20
20
20
40
40
40
E0
ENDCHAR

STARTCHAR g
ENCODING 103
SWIDTH 660 0
DWIDTH 10 0
BBX 11 12 0 -3
BITMAP
1EE0
2180
4080
4080
8100
8100
8100
4300
3E00
0200
8400
7800
ENDCHAR

STARTCHAR h
ENCODING 104
SWIDTH 640 0
DWIDTH 10 0
BBX 9 12 0 0
BITMAP
3000
1000
1000
1700
3880
2080
2080
2080
4100
4100
4100
E380
ENDCHAR

STARTCHAR i
ENCODING 105
SWIDTH 260 0
DWIDTH 4 0
BBX 4 12 0 0
BITMAP
10
10
00
60
20
20
20
40
40
40
40
E0
ENDCHAR

STARTCHAR j
ENCODING 106
SWIDTH 240 0
DWIDTH 4 0
BBX 5 15 -1 -3
BITMAP
08
08
00
30
10
10
10
10
20
20
20
20
20
40
80
ENDCHAR

STARTCHAR k
ENCODING 107
SWIDTH 580 0
DWIDTH 9 0
BBX 9 12 0 0
BITMAP
3000
1000
1000
1380
2200
2400
2800
3000
5000
4800
4400
EF00
ENDCHAR

STARTCHAR l
ENCODING 108
SWIDTH 280 0
DWIDTH 4 0
BBX 4 12 0 0
BITMAP
30
10
10
10
20
20
20
20
40
40
40
E0
ENDCHAR

STARTCHAR m
ENCODING 109
SWIDTH 980 0
DWIDTH 16 0
BBX 15 9 0 0
BITMAP
6F3C
30C2
2082
2082
2082
4104
4104
4104
E38E
ENDCHAR

STARTCHAR n
ENCODING 110
SWIDTH 660 0
DWIDTH 10 0
BBX 9 9 0 0
BITMAP
6F00
3080
2080
2080
2080
4100
4100
4100
E380
ENDCHAR

STARTCHAR o
ENCODING 111
SWIDTH 580 0
DWIDTH 9 0
BBX 9 9 0 0
BITMAP
1E00
2100
4080
4080
8080
8100
8100
4200
3C00
ENDCHAR

STARTCHAR p
ENCODING 112
SWIDTH 660 0
DWIDTH 10 0
BBX 11 12 -1 -3
BITMAP
3380
1440
1820
1020
1020
2040
2040
3080
4F00
4000
4000
E000
ENDCHAR

STARTCHAR q
ENCODING 113
SWIDTH 660 0
DWIDTH 10 0
BBX 11 12 0 -3
BITMAP
1EE0
2180
4080
4080
8100
8100
8100
4300
3E00
0200
0200
0700
ENDCHAR

STARTCHAR r
ENCODING 114
SWIDTH 360 0
DWIDTH 6 0
BBX 6 9 0 0
BITMAP
6C
30
20
20
20
40
40
40
E0
ENDCHAR

STARTCHAR s
ENCODING 115
SWIDTH 420 0
DWIDTH 7 0
BBX 7 9 0 0
BITMAP
3A
46
42
60
18
04
84
C4
B8
ENDCHAR

STARTCHAR t
ENCODING 116
SWIDTH 320 0
DWIDTH 6 0
BBX 6 12 1 0
BITMAP
10
10
10
FC
20
20
20
20
40
40
40
70
ENDCHAR

STARTCHAR u
ENCODING 117
SWIDTH 640 0
DWIDTH 10 0
BBX 8 9 1 0
BITMAP
C3
41
41
41
82
82
82
86
7B
ENDCHAR

STARTCHAR v
ENCODING 118
SWIDTH 640 0
DWIDTH 10 0
BBX 9 9 1 0
BITMAP
E380
4100
4200
4200
2400
2400
2800
1800
1000
ENDCHAR

STARTCHAR w
ENCODING 119
SWIDTH 900 0
DWIDTH 14 0
BBX 13 9 1 0
BITMAP
E038
4210
4210
4620
2920
2940
3140
2080
2080
ENDCHAR

STARTCHAR x
ENCODING 120
SWIDTH 600 0
DWIDTH 10 0
BBX 10 9 0 0
BITMAP
71C0
2080
1100
0A00
0C00
1400
2200
4100
E380
ENDCHAR

STARTCHAR y
ENCODING 121
SWIDTH 640 0
DWIDTH 10 0
BBX 9 12 1 -3
BITMAP
E380
4100
4200
4200
2400
2400
2800
1000
1000
2000
2000
F000
ENDCHAR

STARTCHAR z
ENCODING 122
SWIDTH 420 0
DWIDTH 7 0
BBX 7 9 0 0
BITMAP
7E
42
44
08
10
20
44
84
FC
ENDCHAR

STARTCHAR braceleft
ENCODING 123
SWIDTH 300 0
DWIDTH 5 0
BBX 5 14 1 -2
BITMAP
08
10
20
20
20
40
80
40
40
40
80
80
80
40
ENDCHAR

STARTCHAR bar
ENCODING 124
SWIDTH 660 0
DWIDTH 11 0
BBX 3 12 5 0
BITMAP
20
20
20
20
40
40
40
40
80
80
80
80
ENDCHAR

STARTCHAR braceright
ENCODING 125
SWIDTH 300 0
DWIDTH 5 0
BBX 5 14 0 -2
BITMAP
10
08
08
08
10
10
08
10
20
20
20
20
40
80
ENDCHAR

STARTCHAR asciitilde
ENCODING 126
SWIDTH 660 0
DWIDTH 11 0
BBX 9 2 2 5
BITMAP
7880
8F00
ENDCHAR

STARTCHAR space
ENCODING 160
SWIDTH 300 0
DWIDTH 4 0
BBX 1 1 0 0
BITMAP
00
ENDCHAR

STARTCHAR exclamdown
ENCODING 161
SWIDTH 140 0
DWIDTH 2 0
BBX 3 12 -1 -3
BITMAP
20
20
00
20
20
40
40
40
C0
80
80
80
ENDCHAR

STARTCHAR cent
ENCODING 162
SWIDTH 580 0
DWIDTH 9 0
BBX 7 11 1 0
BITMAP
08
08
3A
56
92
90
A0
A4
78
20
20
ENDCHAR

STARTCHAR sterling
ENCODING 163
SWIDTH 640 0
DWIDTH 9 0
BBX 10 12 0 0
BITMAP
0740
08C0
1040
1000
1000
0800
7F00
0800
0880
1080
2180
FF00
ENDCHAR

STARTCHAR currency
ENCODING 164
SWIDTH 560 0
DWIDTH 9 0
BBX 9 7 0 2
BITMAP
5E80
2100
2100
4100
4200
4200
BD00
ENDCHAR

STARTCHAR yen
ENCODING 165
SWIDTH 740 0
DWIDTH 9 0
BBX 11 12 1 0
BITMAP
F1E0
2080
2100
1200
1400
7F00
0800
7F00
1000
1000
1000
3800
ENDCHAR

STARTCHAR brokenbar
ENCODING 166
SWIDTH 660 0
DWIDTH 11 0
BBX 3 12 5 0
BITMAP
20
20
20
20
00
00
00
00
80
80
80
80
ENDCHAR

STARTCHAR section
ENCODING 167
SWIDTH 440 0
DWIDTH 7 0
BBX 8 14 0 -2
BITMAP
0E
11
21
20
1C
22
42
44
38
0C
04
84
88
70
ENDCHAR

STARTCHAR dieresis
ENCODING 168
SWIDTH 340 0
DWIDTH 5 0
BBX 3 2 3 10
BITMAP
A0
A0
ENDCHAR

STARTCHAR copyright
ENCODING 169
SWIDTH 820 0
DWIDTH 13 0
BBX 12 12 1 0
BITMAP
07C0
1820
2390
4C50
4850
9010
9010
90A0
9120
8E40
4180
3E00
ENDCHAR

STARTCHAR ordfeminine
ENCODING 170
SWIDTH 420 0
DWIDTH 7 0
BBX 7 7 1 5
BITMAP
36
4C
88
98
6C
00
FC
ENDCHAR

STARTCHAR guillemotleft
ENCODING 171
SWIDTH 320 0
DWIDTH 5 0
BBX 6 6 0 1
BITMAP
14
28
50
A0
50
28
ENDCHAR

STARTCHAR logicalnot
ENCODING 172
SWIDTH 660 0
DWIDTH 11 0
BBX 9 5 2 2
BITMAP
FF80
0080
0080
0100
0100
ENDCHAR

STARTCHAR hyphen
ENCODING 173
SWIDTH 300 0
DWIDTH 5 0
BBX 4 1 1 5
BITMAP
F0
ENDCHAR

STARTCHAR registered
ENCODING 174
SWIDTH 820 0
DWIDTH 13 0
BBX 12 12 1 0
BITMAP
07C0
1820
2F10
4890
4890
9110
9E10
9220
A120
A140
4180
3E00
ENDCHAR

STARTCHAR macron
ENCODING 175
SWIDTH 460 0
DWIDTH 7 0
BBX 5 1 3 11
BITMAP
F8
ENDCHAR

STARTCHAR degree
ENCODING 176
SWIDTH 400 0
DWIDTH 6 0
BBX 5 5 2 7
BITMAP
30
48
88
90
60
ENDCHAR

STARTCHAR plusminus
ENCODING 177
SWIDTH 660 0
DWIDTH 11 0
BBX 10 9 1 1
BITMAP
0200
0200
0400
7FC0
0400
0800
0800
0000
FF80
ENDCHAR

STARTCHAR twosuperior
ENCODING 178
SWIDTH 348 0
DWIDTH 6 0
BBX 6 7 1 5
BITMAP
38
44
44
18
20
48
F8
ENDCHAR

STARTCHAR threesuperior
ENCODING 179
SWIDTH 348 0
DWIDTH 6 0
BBX 6 7 1 5
BITMAP
38
44
04
38
08
88
70
ENDCHAR

STARTCHAR acute
ENCODING 180
SWIDTH 420 0
DWIDTH 7 0
BBX 4 3 3 10
BITMAP
10
60
80
ENDCHAR

STARTCHAR mu
ENCODING 181
SWIDTH 640 0
DWIDTH 10 0
BBX 9 12 0 -3
BITMAP
6180
2080
2080
2080
4100
4100
4100
4300
BD80
8000
8000
8000
ENDCHAR

STARTCHAR paragraph
ENCODING 182
SWIDTH 500 0
DWIDTH 8 0
BBX 7 14 2 -2
BITMAP
3E
74
F4
F4
E4
68
28
28
28
48
50
50
50
50
ENDCHAR

STARTCHAR periodcentered
ENCODING 183
SWIDTH 300 0
DWIDTH 4 0
BBX 1 2 2 5
BITMAP
80
80
ENDCHAR

STARTCHAR cedilla
ENCODING 184
SWIDTH 320 0
DWIDTH 5 0
BBX 3 4 0 -4
BITMAP
40
E0
20
C0
ENDCHAR

STARTCHAR onesuperior
ENCODING 185
SWIDTH 348 0
DWIDTH 6 0
BBX 3 7 2 5
BITMAP
60
20
20
40
40
40
E0
ENDCHAR

STARTCHAR ordmasculine
ENCODING 186
SWIDTH 340 0
DWIDTH 6 0
BBX 6 7 1 5
BITMAP
38
44
84
88
70
00
F8
ENDCHAR

STARTCHAR guillemotright
ENCODING 187
SWIDTH 320 0
DWIDTH 5 0
BBX 6 6 0 1
BITMAP
50
28
14
28
50
A0
ENDCHAR

STARTCHAR onequarter
ENCODING 188
SWIDTH 870 0
DWIDTH 14 0
BBX 11 12 2 0
BITMAP
6040
2080
2080
4100
4200
4460
E4A0
0920
1240
23E0
2040
40E0
ENDCHAR

STARTCHAR onehalf
ENCODING 189
SWIDTH 870 0
DWIDTH 14 0
BBX 12 12 2 0
BITMAP
6040
2080
2080
4100
4200
44E0
E510
0910
1060
2080
2120
43E0
ENDCHAR

STARTCHAR threequarters
ENCODING 190
SWIDTH 870 0
DWIDTH 14 0
BBX 12 12 1 0
BITMAP
3820
4440
0440
3880
0900
8A30
7250
0490
0920
11F0
1020
2070
ENDCHAR

STARTCHAR questiondown
ENCODING 191
SWIDTH 520 0
DWIDTH 8 0
BBX 7 12 0 -3
BITMAP
04
04
00
08
08
30
40
80
82
82
44
38
ENDCHAR

STARTCHAR Agrave
ENCODING 192
SWIDTH 820 0
DWIDTH 13 0
BBX 12 16 0 0
BITMAP
0200
0100
0080
0000
0380
0180
0280
0280
0440
0840
0840
1FC0
2040
2020
4020
E070
ENDCHAR

STARTCHAR Aacute
ENCODING 193
SWIDTH 820 0
DWIDTH 13 0
BBX 12 16 0 0
BITMAP
0040
0180
0200
0000
0380
0180
0280
0280
0440
0840
0840
1FC0
2040
2020
4020
E070
ENDCHAR

STARTCHAR Acircumflex
ENCODING 194
SWIDTH 820 0
DWIDTH 13 0
BBX 12 16 0 0
BITMAP
00C0
0140
0220
0000
0380
0180
0280
0280
0440
0840
0840
1FC0
2040
2020
4020
E070
ENDCHAR

STARTCHAR Atilde
ENCODING 195
SWIDTH 820 0
DWIDTH 13 0
BBX 12 15 0 0
BITMAP
0340
0580
0000
0380
0180
0280
0280
0440
0840
0840
1FC0
2040
2020
4020
E070
ENDCHAR

STARTCHAR Adieresis
ENCODING 196
SWIDTH 820 0
DWIDTH 13 0
BBX 12 15 0 0
BITMAP
0240
0240
0000
0380
0180
0280
0280
0440
0840
0840
1FC0
2040
2020
4020
E070
ENDCHAR

STARTCHAR Aring
ENCODING 197
SWIDTH 820 0
DWIDTH 13 0
BBX 12 16 0 0
BITMAP
0180
0240
0240
0180
0380
0180
0280
0280
0440
0840
0840
1FC0
2040
2020
4020
E070
ENDCHAR

STARTCHAR AE
ENCODING 198
SWIDTH 1000 0
DWIDTH 16 0
BBX 16 12 0 0
BITMAP
01FF
00C1
0141
0240
0280
04F8
0880
1F80
1100
2104
4104
E3FC
ENDCHAR

STARTCHAR Ccedilla
ENCODING 199
SWIDTH 740 0
DWIDTH 12 0
BBX 12 16 1 -4
BITMAP
07D0
1830
2010
4000
4000
8000
8000
8000
8000
8040
4080
3F00
0800
1C00
0400
1800
ENDCHAR

STARTCHAR Egrave
ENCODING 200
SWIDTH 560 0
DWIDTH 9 0
BBX 10 16 0 0
BITMAP
0800
0400
0200
0000
3FC0
1040
1040
1000
2000
3E00
2000
2000
4000
4100
4100
FF00
ENDCHAR

STARTCHAR Eacute
ENCODING 201
SWIDTH 560 0
DWIDTH 9 0
BBX 10 16 0 0
BITMAP
0080
0300
0400
0000
3FC0
1040
1040
1000
2000
3E00
2000
2000
4000
4100
4100
FF00
ENDCHAR

STARTCHAR Ecircumflex
ENCODING 202
SWIDTH 560 0
DWIDTH 9 0
BBX 10 16 0 0
BITMAP
0300
0500
0880
0000
3FC0
1040
1040
1000
2000
3E00
2000
2000
4000
4100
4100
FF00
ENDCHAR

STARTCHAR Edieresis
ENCODING 203
SWIDTH 560 0
DWIDTH 9 0
BBX 10 15 0 0
BITMAP
0900
0900
0000
3FC0
1040
1040
1000
2000
3E00
2000
2000
4000
4100
4100
FF00
ENDCHAR

STARTCHAR Igrave
ENCODING 204
SWIDTH 300 0
DWIDTH 6 0
BBX 5 16 1 0
BITMAP
20
10
08
00
38
10
10
10
20
20
20
20
40
40
40
E0
ENDCHAR

STARTCHAR Iacute
ENCODING 205
SWIDTH 300 0
DWIDTH 6 0
BBX 6 16 1 0
BITMAP
04
18
20
00
38
10
10
10
20
20
20
20
40
40
40
E0
ENDCHAR

STARTCHAR Icircumflex
ENCODING 206
SWIDTH 300 0
DWIDTH 6 0
BBX 6 16 1 0
BITMAP
18
28
44
00
38
10
10
10
20
20
20
20
40
40
40
E0
ENDCHAR

STARTCHAR Idieresis
ENCODING 207
SWIDTH 300 0
DWIDTH 6 0
BBX 6 15 1 0
BITMAP
24
24
00
38
10
10
10
20
20
20
20
40
40
40
E0
ENDCHAR

STARTCHAR Eth
ENCODING 208
SWIDTH 720 0
DWIDTH 11 0
BBX 11 12 0 0
BITMAP
3F00
10C0
1040
1020
2020
7C20
2020
2040
4040
4080
4300
FC00
ENDCHAR

STARTCHAR Ntilde
ENCODING 209
SWIDTH 800 0
DWIDTH 12 0
BBX 13 15 0 0
BITMAP
0340
0580
0000
3838
1810
1410
1410
2220
2220
2320
2120
4140
40C0
40C0
E040
ENDCHAR

STARTCHAR Ograve
ENCODING 210
SWIDTH 800 0
DWIDTH 13 0
BBX 12 16 1 0
BITMAP
0200
0100
0080
0000
07C0
1820
2010
4010
4010
8010
8010
8020
8020
8040
4180
3E00
ENDCHAR

STARTCHAR Oacute
ENCODING 211
SWIDTH 800 0
DWIDTH 13 0
BBX 12 16 1 0
BITMAP
0040
0180
0200
0000
07C0
1820
2010
4010
4010
8010
8010
8020
8020
8040
4180
3E00
ENDCHAR

STARTCHAR Ocircumflex
ENCODING 212
SWIDTH 800 0
DWIDTH 13 0
BBX 12 16 1 0
BITMAP
0180
0280
0440
0000
07C0
1820
2010
4010
4010
8010
8010
8020
8020
8040
4180
3E00
ENDCHAR

STARTCHAR Otilde
ENCODING 213
SWIDTH 800 0
DWIDTH 13 0
BBX 12 15 1 0
BITMAP
0320
05C0
0000
07C0
1820
2010
4010
4010
8010
8010
8020
8020
8040
4180
3E00
ENDCHAR

STARTCHAR Odieresis
ENCODING 214
SWIDTH 800 0
DWIDTH 13 0
BBX 12 15 1 0
BITMAP
0240
0240
0000
07C0
1820
2010
4010
4010
8010
8010
8020
8020
8040
4180
3E00
ENDCHAR

STARTCHAR multiply
ENCODING 215
SWIDTH 660 0
DWIDTH 11 0
BBX 9 7 2 2
BITMAP
2080
1100
1600
0800
3400
4400
8200
ENDCHAR

STARTCHAR Oslash
ENCODING 216
SWIDTH 800 0
DWIDTH 13 0
BBX 14 14 0 -1
BITMAP
0004
03E8
0C10
1028
2048
2088
4108
4208
4410
4810
5020
20C0
5F00
8000
ENDCHAR

STARTCHAR Ugrave
ENCODING 217
SWIDTH 700 0
DWIDTH 10 0
BBX 10 16 1 0
BITMAP
0800
0400
0200
0000
71C0
2080
2080
2080
4100
4100
4100
8200
8200
8200
C400
7800
ENDCHAR

STARTCHAR Uacute
ENCODING 218
SWIDTH 700 0
DWIDTH 10 0
BBX 10 16 1 0
BITMAP
0080
0300
0400
0000
71C0
2080
2080
2080
4100
4100
4100
8200
8200
8200
C400
7800
ENDCHAR

STARTCHAR Ucircumflex
ENCODING 219
SWIDTH 700 0
DWIDTH 10 0
BBX 10 16 1 0
BITMAP
0600
0A00
1100
0000
71C0
2080
2080
2080
4100
4100
4100
8200
8200
8200
C400
7800
ENDCHAR

STARTCHAR Udieresis
ENCODING 220
SWIDTH 700 0
DWIDTH 10 0
BBX 10 15 1 0
BITMAP
0900
0900
0000
71C0
2080
2080
2080
4100
4100
4100
8200
8200
8200
C400
7800
ENDCHAR

STARTCHAR Yacute
ENCODING 221
SWIDTH 680 0
DWIDTH 12 0
BBX 12 16 2 0
BITMAP
0080
0300
0400
0000
F0F0
4040
2080
2100
1200
1400
0C00
0800
0800
1000
1000
3800
ENDCHAR

STARTCHAR Thorn
ENCODING 222
SWIDTH 580 0
DWIDTH 9 0
BBX 9 12 0 0
BITMAP
3800
1000
1F00
1080
1080
2080
2080
2100
7E00
4000
4000
E000
ENDCHAR

STARTCHAR germandbls
ENCODING 223
SWIDTH 580 0
DWIDTH 9 0
BBX 10 12 0 0
BITMAP
0700
0880
1040
1040
2080
2700
2100
2080
4080
4100
4300
DC00
ENDCHAR

STARTCHAR agrave
ENCODING 224
SWIDTH 660 0
DWIDTH 10 0
BBX 11 13 0 0
BITMAP
0800
0400
0200
0000
1F60
2180
4080
4080
8080
8100
8100
4300
3D80
ENDCHAR

STARTCHAR aacute
ENCODING 225
SWIDTH 660 0
DWIDTH 10 0
BBX 11 13 0 0
BITMAP
0080
0300
0400
0000
1F60
2180
4080
4080
8080
8100
8100
4300
3D80
ENDCHAR

STARTCHAR acircumflex
ENCODING 226
SWIDTH 660 0
DWIDTH 10 0
BBX 11 13 0 0
BITMAP
0300
0500
0880
0000
1F60
2180
4080
4080
8080
8100
8100
4300
3D80
ENDCHAR

STARTCHAR atilde
ENCODING 227
SWIDTH 660 0
DWIDTH 10 0
BBX 11 12 0 0
BITMAP
0680
0B00
0000
1F60
2180
4080
4080
8080
8100
8100
4300
3D80
ENDCHAR

STARTCHAR adieresis
ENCODING 228
SWIDTH 660 0
DWIDTH 10 0
BBX 11 12 0 0
BITMAP
0900
0900
0000
1F60
2180
4080
4080
8080
8100
8100
4300
3D80
ENDCHAR

STARTCHAR aring
ENCODING 229
SWIDTH 660 0
DWIDTH 10 0
BBX 11 13 0 0
BITMAP
0600
0900
0900
0600
1F60
2180
4080
4080
8080
8100
8100
4300
3D80
ENDCHAR

STARTCHAR ae
ENCODING 230
SWIDTH 1060 0
DWIDTH 16 0
BBX 16 9 0 0
BITMAP
1EBC
21C2
4081
4081
81FF
8100
8102
4384
3D78
ENDCHAR

STARTCHAR ccedilla
ENCODING 231
SWIDTH 560 0
DWIDTH 9 0
BBX 10 13 0 -4
BITMAP
1F40
2180
4080
4000
8000
8000
8100
4200
3C00
1000
3800
0800
3000
ENDCHAR

STARTCHAR egrave
ENCODING 232
SWIDTH 580 0
DWIDTH 9 0
BBX 9 13 0 0
BITMAP
0800
0400
0200
0000
1E00
2100
4080
4080
FF80
8000
8100
4200
3C00
ENDCHAR

STARTCHAR eacute
ENCODING 233
SWIDTH 580 0
DWIDTH 9 0
BBX 9 13 0 0
BITMAP
0100
0600
0800
0000
1E00
2100
4080
4080
FF80
8000
8100
4200
3C00
ENDCHAR

STARTCHAR ecircumflex
ENCODING 234
SWIDTH 580 0
DWIDTH 9 0
BBX 9 13 0 0
BITMAP
0600
0A00
1100
0000
1E00
2100
4080
4080
FF80
8000
8100
4200
3C00
ENDCHAR

STARTCHAR edieresis
ENCODING 235
SWIDTH 580 0
DWIDTH 9 0
BBX 9 12 0 0
BITMAP
1200
1200
0000
1E00
2100
4080
4080
FF80
8000
8100
4200
3C00
ENDCHAR

STARTCHAR igrave
ENCODING 236
SWIDTH 260 0
DWIDTH 4 0
BBX 4 13 0 0
BITMAP
40
20
10
00
60
20
20
20
40
40
40
40
E0
ENDCHAR

STARTCHAR iacute
ENCODING 237
SWIDTH 260 0
DWIDTH 4 0
BBX 5 13 0 0
BITMAP
08
30
40
00
60
20
20
20
40
40
40
40
E0
ENDCHAR

STARTCHAR icircumflex
ENCODING 238
SWIDTH 260 0
DWIDTH 4 0
BBX 5 13 0 0
BITMAP
30
50
88
00
60
20
20
20
40
40
40
40
E0
ENDCHAR

STARTCHAR idieresis
ENCODING 239
SWIDTH 260 0
DWIDTH 4 0
BBX 4 12 0 0
BITMAP
50
50
00
60
20
20
20
40
40
40
40
E0
ENDCHAR

STARTCHAR eth
ENCODING 240
SWIDTH 580 0
DWIDTH 9 0
BBX 9 13 0 0
BITMAP
4000
3300
1C00
6600
1F00
2100
4080
4080
8080
8100
8100
4200
3C00
ENDCHAR

STARTCHAR ntilde
ENCODING 241
SWIDTH 660 0
DWIDTH 10 0
BBX 9 12 0 0
BITMAP
0D00
1600
0000
6F00
3080
2080
2080
2080
4100
4100
4100
E380
ENDCHAR

STARTCHAR ograve
ENCODING 242
SWIDTH 580 0
DWIDTH 9 0
BBX 9 13 0 0
BITMAP
1000
0800
0400
0000
1E00
2100
4080
4080
8080
8100
8100
4200
3C00
ENDCHAR

STARTCHAR oacute
ENCODING 243
SWIDTH 580 0
DWIDTH 9 0
BBX 9 13 0 0
BITMAP
0100
0600
0800
0000
1E00
2100
4080
4080
8080
8100
8100
4200
3C00
ENDCHAR

STARTCHAR ocircumflex
ENCODING 244
SWIDTH 580 0
DWIDTH 9 0
BBX 9 13 0 0
BITMAP
0600
0A00
1100
0000
1E00
2100
4080
4080
8080
8100
8100
4200
3C00
ENDCHAR

STARTCHAR otilde
ENCODING 245
SWIDTH 580 0
DWIDTH 9 0
BBX 9 12 0 0
BITMAP
0D00
1600
0000
1E00
2100
4080
4080
8080
8100
8100
4200
3C00
ENDCHAR

STARTCHAR odieresis
ENCODING 246
SWIDTH 580 0
DWIDTH 9 0
BBX 9 12 0 0
BITMAP
1200
1200
0000
1E00
2100
4080
4080
8080
8100
8100
4200
3C00
ENDCHAR

STARTCHAR divide
ENCODING 247
SWIDTH 660 0
DWIDTH 11 0
BBX 8 7 2 2
BITMAP
08
08
00
FF
00
10
10
ENDCHAR

STARTCHAR oslash
ENCODING 248
SWIDTH 580 0
DWIDTH 9 0
BBX 11 11 -1 -1
BITMAP
0020
0F40
1080
2140
2240
4440
4880
5080
2100
5E00
8000
ENDCHAR

STARTCHAR ugrave
ENCODING 249
SWIDTH 640 0
DWIDTH 10 0
BBX 8 13 1 0
BITMAP
20
10
08
00
C3
41
41
41
82
82
82
86
7B
ENDCHAR

STARTCHAR uacute
ENCODING 250
SWIDTH 640 0
DWIDTH 10 0
BBX 8 13 1 0
BITMAP
02
0C
10
00
C3
41
41
41
82
82
82
86
7B
ENDCHAR

STARTCHAR ucircumflex
ENCODING 251
SWIDTH 640 0
DWIDTH 10 0
BBX 8 13 1 0
BITMAP
0C
14
22
00
C3
41
41
41
82
82
82
86
7B
ENDCHAR

STARTCHAR udieresis
ENCODING 252
SWIDTH 640 0
DWIDTH 10 0
BBX 8 12 1 0
BITMAP
12
12
00
C3
41
41
41
82
82
82
86
7B
ENDCHAR

STARTCHAR yacute
ENCODING 253
SWIDTH 640 0
DWIDTH 10 0
BBX 9 16 1 -3
BITMAP
0100
0600
0800
0000
E380
4100
4200
4200
2400
2400
2800
1000
1000
2000
2000
F000
ENDCHAR

STARTCHAR thorn
ENCODING 254
SWIDTH 660 0
DWIDTH 10 0
BBX 11 15 -1 -3
BITMAP
1800
0800
0800
0B80
1440
1820
1020
1020
2040
2040
3080
4F00
4000
4000
E000
ENDCHAR

STARTCHAR ydieresis
ENCODING 255
SWIDTH 640 0
DWIDTH 10 0
BBX 9 15 1 -3
BITMAP
1200
1200
0000
E380
4100
4200
4200
2400
2400
2800
1000
1000
2000
2000
F000
ENDCHAR
ENDFONT
